{
    "asset" : {
        "generator" : "Khronos glTF Blender I/O v1.4.40",
        "version" : "2.0"
    },
    "scene" : 0,
    "scenes" : [
        {
            "name" : "Scene",
            "nodes" : [
                0,
                1,
                2,
                3,
                4
            ]
        }
    ],
    "nodes" : [
        {
            "name" : "Point",
            "translation" : [
                2.2713096141815186,
                0.8862121105194092,
                0.09914660453796387
            ]
        },
        {
            "name" : "Sun",
            "translation" : [
                0.08150935173034668,
                1.209296464920044,
                -0.5311737060546875
            ]
        },
        {
            "mesh" : 0,
            "name" : "Suzanne"
        },
        {
            "name" : "Point.001",
            "translation" : [
                2.2713096141815186,
                0.8862121105194092,
                0.09914660453796387
            ]
        },
        {
            "name" : "Sun.001",
            "translation" : [
                0.08150935173034668,
                1.209296464920044,
                -0.5311737060546875
            ]
        }
    ],
    "materials" : [
        {
            "doubleSided" : true,
            "name" : "Material.001",
            "pbrMetallicRoughness" : {
                "baseColorFactor" : [
                    0.7912682294845581,
                    0.7431145310401917,
                    0.8412014842033386,
                    1
                ],
                "metallicFactor" : 0,
                "roughnessFactor" : 0.4000000059604645
            }
        }
    ],
    "meshes" : [
        {
            "name" : "Suzanne.002",
            "primitives" : [
                {
                    "attributes" : {
                        "POSITION" : 0,
                        "NORMAL" : 1,
                        "TEXCOORD_0" : 2
                    },
                    "indices" : 3,
                    "material" : 0
                }
            ]
        }
    ],
    "accessors" : [
        {
            "bufferView" : 0,
            "componentType" : 5126,
            "count" : 845,
            "max" : [
                0.859375,
                0.8948408961296082,
                0.65625
            ],
            "min" : [
                -0.859375,
                -0.1953125,
                -0.828125
            ],
            "type" : "VEC3"
        },
        {
            "bufferView" : 1,
            "componentType" : 5126,
            "count" : 845,
            "type" : "VEC3"
        },
        {
            "bufferView" : 2,
            "componentType" : 5126,
            "count" : 845,
            "type" : "VEC2"
        },
        {
            "bufferView" : 3,
            "componentType" : 5123,
            "count" : 1119,
            "type" : "SCALAR"
        }
    ],
    "bufferViews" : [
        {
            "buffer" : 0,
            "byteLength" : 10140,
            "byteOffset" : 0
        },
        {
            "buffer" : 0,
            "byteLength" : 10140,
            "byteOffset" : 10140
        },
        {
            "buffer" : 0,
            "byteLength" : 6760,
            "byteOffset" : 20280
        },
        {
            "buffer" : 0,
            "byteLength" : 2238,
            "byteOffset" : 27040
        }
    ],
    "buffers" : [
        {
            "byteLength" : 29280,
            "uri" : "data:application/octet-stream;base64,"
        }
    ]
}
