{
    "asset" : {
        "generator" : "Khronos glTF Blender I/O v1.4.40",
        "version" : "2.0"
    },
    "scene" : 0,
    "scenes" : [
        {
            "name" : "Scene",
            "nodes" : [
                0,
                1,
                2
            ]
        }
    ],
    "nodes" : [
        {
            "mesh" : 0,
            "name" : "Suzanne"
        },
        {
            "name" : "Point",
            "translation" : [
                2.2713096141815186,
                0.8862121105194092,
                0.09914660453796387
            ]
        },
        {
            "name" : "Sun",
            "translation" : [
                0.08150935173034668,
                1.209296464920044,
                -0.5311737060546875
            ]
        }
    ],
    "materials" : [
        {
            "doubleSided" : true,
            "name" : "Material.002",
            "pbrMetallicRoughness" : {
                "baseColorFactor" : [
                    1,
                    0.9114055037498474,
                    0.9114055037498474,
                    1
                ],
                "metallicFactor" : 0,
                "roughnessFactor" : 0.4000000059604645
            }
        }
    ],
    "meshes" : [
        {
            "name" : "Suzanne.001",
            "primitives" : [
                {
                    "attributes" : {
                        "POSITION" : 0,
                        "NORMAL" : 1,
                        "TEXCOORD_0" : 2
                    },
                    "indices" : 3,
                    "material" : 0
                }
            ]
        }
    ],
    "accessors" : [
        {
            "bufferView" : 0,
            "componentType" : 5126,
            "count" : 414,
            "max" : [
                0.859375,
                0.984375,
                0.65625
            ],
            "min" : [
                -0.859375,
                -0.1953125,
                -0.8515625
            ],
            "type" : "VEC3"
        },
        {
            "bufferView" : 1,
            "componentType" : 5126,
            "count" : 414,
            "type" : "VEC3"
        },
        {
            "bufferView" : 2,
            "componentType" : 5126,
            "count" : 414,
            "type" : "VEC2"
        },
        {
            "bufferView" : 3,
            "componentType" : 5123,
            "count" : 588,
            "type" : "SCALAR"
        }
    ],
    "bufferViews" : [
        {
            "buffer" : 0,
            "byteLength" : 4968,
            "byteOffset" : 0
        },
        {
            "buffer" : 0,
            "byteLength" : 4968,
            "byteOffset" : 4968
        },
        {
            "buffer" : 0,
            "byteLength" : 3312,
            "byteOffset" : 9936
        },
        {
            "buffer" : 0,
            "byteLength" : 1176,
            "byteOffset" : 13248
        }
    ],
    "buffers" : [
        {
            "byteLength" : 14424,
            "uri" : "data:application/octet-stream;base64,"
        }
    ]
}
